<svg version="1.1" id="Layer_1" xmlns="http://www.w3.org/2000/svg" x="0" y="0" viewBox="0 0 128 128" xml:space="preserve"><style type="text/css">.st0{fill:#004898}</style><path class="st0" d="M115 109.2H99.8V62.3c0-.7-.4-1.3-1-1.6l-22.5-9.9V25c0-1-.8-1.8-1.8-1.8H54.8V17c0-1-.8-1.8-1.8-1.8s-1.7.8-1.7 1.8v6.2H31.5c-1 0-1.8.8-1.8 1.8v84.2H13c-1 0-1.8.8-1.8 1.8s.8 1.8 1.8 1.8h102c1 0 1.8-.8 1.8-1.8s-.8-1.8-1.8-1.8zm-18.8 0h-4V89.8c0-1-.8-1.8-1.8-1.8H71.7c-1 0-1.8.8-1.8 1.8v19.4h-4.2V50l8.1 3.6 22.4 9.9v45.7zm-7.4 0H73.4V91.6h15.3v17.6zM33.3 26.8h39.5v22.5l-8-3.5c-.5-.2-1.2-.2-1.7.1-.5.3-.8.9-.8 1.5v61.9h-29V26.8z"/><path class="st0" d="M48.1 30.5h-7.8c-1 0-1.8.8-1.8 1.8V40c0 1 .8 1.8 1.8 1.8h7.8c1 0 1.8-.8 1.8-1.8v-7.8c0-.9-.8-1.7-1.8-1.7zm-1.7 7.7h-4.2V34h4.2v4.2zm1.7 10.2h-7.8c-1 0-1.8.8-1.8 1.8V58c0 1 .8 1.8 1.8 1.8h7.8c1 0 1.8-.8 1.8-1.8v-7.8c0-1-.8-1.8-1.8-1.8zm-1.7 7.8h-4.2V52h4.2v4.2zm1.7 10.1h-7.8c-1 0-1.8.8-1.8 1.8v7.8c0 1 .8 1.8 1.8 1.8h7.8c1 0 1.8-.8 1.8-1.8v-7.8c0-1-.8-1.8-1.8-1.8zm-1.7 7.8h-4.2v-4.2h4.2v4.2zm1.7 10.1h-7.8c-1 0-1.8.8-1.8 1.8v7.8c0 1 .8 1.8 1.8 1.8h7.8c1 0 1.8-.8 1.8-1.8V86c0-1-.8-1.8-1.8-1.8zM46.4 92h-4.2v-4.2h4.2V92zm19.2-50.2c1 0 1.8-.8 1.8-1.8v-7.8c0-1-.8-1.8-1.8-1.8h-7.8c-1 0-1.8.8-1.8 1.8V40c0 1 .8 1.8 1.8 1.8h7.8zm-6-7.8h4.2v4.2h-4.2V34zm12.1 35.3c-1 0-1.8.8-1.8 1.8v7.1c0 1 .8 1.8 1.8 1.8h18.8c1 0 1.8-.8 1.8-1.8V71c0-1-.8-1.8-1.8-1.8H71.7zm17.1 7.1H73.4v-3.6h15.3v3.6z"/></svg>