<?xml version="1.0" encoding="utf-8"?>
<!-- Generator: Adobe Illustrator 22.0.0, SVG Export Plug-In . SVG Version: 6.00 Build 0)  -->
<svg version="1.1" id="Layer_1" xmlns="http://www.w3.org/2000/svg" xmlns:xlink="http://www.w3.org/1999/xlink" x="0px" y="0px"
	 viewBox="0 0 128 128" style="enable-background:new 0 0 128 128;" xml:space="preserve">
<style type="text/css">
	.st0{fill:#004898;}
</style>
<title>PIGGY BANK</title>
<g>
	<path class="st0" d="M40,26.6h-1.8c-2.9,0-5.3,2.4-5.3,5.3v71.3c0,2.9,2.4,5.3,5.3,5.3h41c0.4,0,0.9-0.2,1.3-0.5l14.3-14.3
		c0.2-0.2,0.4-0.7,0.4-1.2V31.9c0-2.9-2.4-5.3-5.3-5.3H52.4 M52.4,30.1h37.4c1,0,1.8,0.8,1.8,1.8v58.8h-8.9c-2.9,0-5.3,2.4-5.3,5.3
		v8.9H38.2c-1,0.1-1.8-0.7-1.8-1.7V31.9c0-1,0.8-1.8,1.8-1.8h10.7 M80.9,102.5v-6.4c0-1,0.8-1.8,1.8-1.8h6.4
		C83.9,99.5,86.1,97.3,80.9,102.5z"/>
</g>
<g>
	<path class="st0" d="M74.1,64.6H46.3c-0.7,0-1.3,0.6-1.3,1.3s0.6,1.3,1.3,1.3h27.8c0.7,0,1.3-0.6,1.3-1.3S74.9,64.6,74.1,64.6z"/>
	<path class="st0" d="M46.3,75.3H63c0.7,0,1.3-0.6,1.3-1.3c0-0.7-0.6-1.3-1.3-1.3H46.3c-0.7,0-1.3,0.6-1.3,1.3
		C44.9,74.7,45.5,75.3,46.3,75.3z"/>
	<path class="st0" d="M74.1,80.6H46.3c-0.7,0-1.3,0.6-1.3,1.3c0,0.7,0.6,1.3,1.3,1.3h27.8c0.7,0,1.3-0.6,1.3-1.3
		C75.5,81.2,74.9,80.6,74.1,80.6z"/>
	<path class="st0" d="M63,88.6H46.3c-0.7,0-1.3,0.6-1.3,1.3s0.6,1.3,1.3,1.3H63c0.7,0,1.3-0.6,1.3-1.3S63.7,88.6,63,88.6z"/>
	<path class="st0" d="M46.3,58.4h37.6c0.7,0,1.3-0.6,1.3-1.3v-19c0-0.7-0.6-1.3-1.3-1.3H46.3c-0.7,0-1.3,0.6-1.3,1.3v19
		C44.9,57.8,45.5,58.4,46.3,58.4z M47.6,39.4h34.9v16.3H47.6V39.4z"/>
</g>
</svg>
