<svg version="1.1" id="Layer_1" xmlns="http://www.w3.org/2000/svg" x="0" y="0" viewBox="0 0 128 128" xml:space="preserve"><style type="text/css">.st0{fill:#004898}</style><path class="st0" d="M110.5 30h-93c-3.4 0-6.2 2.8-6.2 6.2v55.5c0 3.4 2.8 6.2 6.2 6.2h93.1c3.4 0 6.2-2.8 6.2-6.2V36.2c0-3.4-2.8-6.2-6.3-6.2zM14.8 46.3h98.5v7H14.8v-7zm2.7-12.8h93.1c1.5 0 2.7 1.2 2.7 2.7v6.5H14.8v-6.5c0-1.4 1.2-2.7 2.7-2.7zm93 61h-93c-1.5 0-2.7-1.2-2.7-2.7v-35h98.5v35c-.1 1.4-1.3 2.7-2.8 2.7z"/><path class="st0" d="M38.3 76.2c-2.3 0-4.4 1.1-5.8 2.7-1.4-1.7-3.5-2.7-5.8-2.7-4.2 0-7.6 3.4-7.6 7.6 0 4.2 3.4 7.6 7.6 7.6 2.3 0 4.4-1.1 5.8-2.7 1.4 1.7 3.5 2.7 5.8 2.7 4.2 0 7.6-3.4 7.6-7.6-.1-4.2-3.5-7.6-7.6-7.6zM26.6 87.9c-2.3 0-4.1-1.8-4.1-4.1s1.8-4.1 4.1-4.1 4.1 1.8 4.1 4.1-1.8 4.1-4.1 4.1zm11.7 0c-2.3 0-4.1-1.8-4.1-4.1s1.8-4.1 4.1-4.1 4.1 1.8 4.1 4.1-1.9 4.1-4.1 4.1zm70-7.8l-4.8-3.5c-.3-.2-.7-.3-1-.3H92.2c-1 0-1.8.8-1.8 1.8v11.7c0 1 .8 1.8 1.8 1.8h15c1 0 1.8-.8 1.8-1.8v-8.2c0-.7-.3-1.2-.7-1.5zm-2.8 7.8H94v-8.2h7.9l3.6 2.6v5.6z"/></svg>