<svg version="1.1" id="Layer_1" xmlns="http://www.w3.org/2000/svg" x="0" y="0" viewBox="0 0 128 128" xml:space="preserve"><style type="text/css">.st0{fill:#004898}</style><path class="st0" d="M95.9 75.2c-5.6-9-16-12.2-16.4-12.3-.8-.3-1.7-.2-2.4.4-.1.1-6.6 5.7-13.4 5.7-4.9 0-10.5-2.8-13.7-5.7-.7-.6-1.6-.7-2.5-.5-.4.1-10.6 3.7-16.2 12.7-3.9 6.2-3.2 17.4-3.2 17.9.1 1.3 1.2 2.6 2.5 2.6H48v-5H33c0-4 .5-9.4 2.5-12.6 3.6-5.7 9.7-9 12.3-10.2 1.2.9 3.2 2.2 5.6 3.5l3.5 11L53 97.6c-.4 1.5-.2 1.2 8.3 13.2.5.7 1.2 1.1 2 1.1 1.7 0 1.6-.5 9.9-12.8.9-1.3.7-1-4.1-16.8l4-10.6c2.6-1.3 4.7-2.7 6-3.7 2.6 1.1 8.8 4.3 12.4 10 2 3.2 2.6 8.9 2.7 12.9H79v5h17.8c1.3 0 2.4-1.3 2.5-2.6 0-.4.4-11.9-3.4-18.1zm-32.5 29.7l-5.1-7.3L61.8 84h2.8l3.9 13.2-5.1 7.7zM65.1 79h-3.9l-1.8-5.5c2.8.6 4.7.7 7.7.1l-2 5.4z"/><path class="st0" d="M63.5 63.8c9.9 0 17.5-8 17.5-17.9V34.6c0-9.9-7.6-17.9-17.5-17.9S46 24.8 46 34.6v11.3c0 9.9 7.6 17.9 17.5 17.9zM51 34.6c0-14.7 20.4-17.8 24.9-4-2.7 1.5-4.6 1.9-9.8-.1-7.7-3-12 .3-12.4.7l3.2 3.9c.1-.1 2.5-1.8 7.4.1 3 1.2 5.2 1.7 7.2 1.7 1.7 0 3.5-.4 4.5-1.1v10c0 7.1-5.4 12.9-12.5 12.9C56.4 58.8 51 53 51 45.9V34.6zm-101 5.7h25.5v18.5H-50z"/></svg>