<?xml version="1.0" encoding="utf-8"?>
<!-- Generator: Adobe Illustrator 24.0.2, SVG Export Plug-In . SVG Version: 6.00 Build 0)  -->
<svg version="1.1" id="Layer_1" xmlns="http://www.w3.org/2000/svg" xmlns:xlink="http://www.w3.org/1999/xlink" x="0px" y="0px"
	 viewBox="0 0 314.4 116.7" style="enable-background:new 0 0 314.4 116.7;" xml:space="preserve">
<style type="text/css">
	.st0{fill:url(#SVGID_1_);}
	.st1{fill:url(#SVGID_2_);}
	.st2{fill:#FFFFFF;}
	.st3{font-family:'MyriadPro-Semibold';}
	.st4{font-size:25.7576px;}
</style>
<g>
	<g>
		<linearGradient id="SVGID_1_" gradientUnits="userSpaceOnUse" x1="90.0358" y1="57.6313" x2="302.0382" y2="57.6313">
			<stop  offset="0" style="stop-color:#036FAD"/>
			<stop  offset="1" style="stop-color:#51B2E5"/>
		</linearGradient>
		<path class="st0" d="M90,83.3h186.3c14.2,0,25.7-11.5,25.7-25.7c0-14.2-11.5-25.7-25.7-25.7H90V83.3z"/>
	</g>
	<g>
		<linearGradient id="SVGID_2_" gradientUnits="userSpaceOnUse" x1="16.8507" y1="57.5" x2="105.3615" y2="57.5">
			<stop  offset="0" style="stop-color:#036FAD"/>
			<stop  offset="1" style="stop-color:#51B2E5"/>
		</linearGradient>
		<ellipse class="st1" cx="61.1" cy="57.5" rx="44.3" ry="44.3"/>
		<g>
			<path class="st2" d="M85.1,34c-7.5,3.1-39.8,16.5-48.7,20.1c-6,2.3-2.5,4.5-2.5,4.5s5.1,1.8,9.5,3.1c4.4,1.3,6.7-0.1,6.7-0.1
				l20.6-13.9c7.3-5,5.5-0.9,3.8,0.9c-3.8,3.8-10.1,9.8-15.3,14.6c-2.3,2-1.2,3.8-0.1,4.7c3.8,3.2,14.2,9.8,14.7,10.2
				c3.1,2.2,9.1,5.3,10.1-1.3l3.6-22.9c1.2-7.7,2.3-14.9,2.5-16.9C90.4,32,85.1,34,85.1,34z"/>
		</g>
	</g>
	<text transform="matrix(1 0 0 1 129.1574 67.3848)" class="st2 st3 st4">Chat with Us</text>
</g>
</svg>
