<svg version="1.1" id="Layer_1" xmlns="http://www.w3.org/2000/svg" x="0" y="0" viewBox="0 0 128 128" xml:space="preserve"><style type="text/css">.st1{fill:none;stroke:#004898;stroke-width:4;stroke-linecap:square;stroke-miterlimit:10}</style><path fill="#004898" d="M-50 40.3h25.5v18.5H-50z"/><g id="_x31_2"><path class="st1" d="M48 53.7c-1.7-2.7-1.4-3.4-1.4-3.4l5-7.2c1.3-1.8 1.1-4.3-.4-5.9L40.8 26.9c-1.5-1.5-3.9-1.6-5.6-.3L30.8 30c-.4.3-.7.6-1 1-8.9 12.4 3.6 31.9 18.9 47.1C63.6 93 83.8 106.2 96 96.8l.9-.9 3.5-4.6c1.3-1.7 1.1-4.1-.4-5.6L89.7 75.4c-1.6-1.6-4.1-1.8-5.9-.4l-7.2 5s-2.9 1-16.9-12.9c-5-5-8.1-8.5-10-11.1-.7-.9-1.3-1.6-1.7-2.3" id="_x38__2_"/><path class="st1" d="M87 60.1c0-3-.7-6.1-2.1-8.9-3.5-7.2-10.7-11.5-18.2-11.6m32.1 20.5c0-4.7-1-9.5-3.2-14.1-5.6-11.4-17-18.1-28.9-18.2m28.9 18.3c-4-9.3-16.6-17.7-28.8-18.2"/></g></svg>