<?xml version="1.0" encoding="utf-8"?>
<!-- Generator: Adobe Illustrator 23.0.0, SVG Export Plug-In . SVG Version: 6.00 Build 0)  -->
<svg version="1.1" id="Layer_1" xmlns="http://www.w3.org/2000/svg" xmlns:xlink="http://www.w3.org/1999/xlink" x="0px" y="0px"
	 viewBox="0 0 128 128" style="enable-background:new 0 0 128 128;" xml:space="preserve">
<style type="text/css">
	.st0{fill:#004898;}
	.st1{fill:none;stroke:#004898;stroke-width:3.9;stroke-linecap:round;stroke-linejoin:round;stroke-miterlimit:10;}
	.st2{fill:none;stroke:#004898;stroke-width:3.9;stroke-miterlimit:10;}
</style>
<path class="st0" d="M-43,19.6h-15.2v-46.9c0-0.7-0.4-1.3-1-1.6l-22.5-9.9v-25.8c0-1-0.8-1.8-1.8-1.8h-19.7v-6.2
	c0-1-0.8-1.8-1.8-1.8s-1.7,0.8-1.7,1.8v6.2h-19.8c-1,0-1.8,0.8-1.8,1.8v84.2H-145c-1,0-1.8,0.8-1.8,1.8s0.8,1.8,1.8,1.8h102
	c1,0,1.8-0.8,1.8-1.8S-42,19.6-43,19.6z M-61.8,19.6h-4V0.2c0-1-0.8-1.8-1.8-1.8h-18.7c-1,0-1.8,0.8-1.8,1.8v19.4h-4.2v-59.2
	l8.1,3.6l22.4,9.9V19.6z M-69.2,19.6h-15.4V2h15.3L-69.2,19.6L-69.2,19.6z M-124.7-62.8h39.5v22.5l-8-3.5c-0.5-0.2-1.2-0.2-1.7,0.1
	s-0.8,0.9-0.8,1.5v61.9h-29C-124.7,19.7-124.7-62.8-124.7-62.8z"/>
<path class="st0" d="M-109.9-59.1h-7.8c-1,0-1.8,0.8-1.8,1.8v7.7c0,1,0.8,1.8,1.8,1.8h7.8c1,0,1.8-0.8,1.8-1.8v-7.8
	C-108.1-58.3-108.9-59.1-109.9-59.1z M-111.6-51.4h-4.2v-4.2h4.2V-51.4z M-109.9-41.2h-7.8c-1,0-1.8,0.8-1.8,1.8v7.8
	c0,1,0.8,1.8,1.8,1.8h7.8c1,0,1.8-0.8,1.8-1.8v-7.8C-108.1-40.4-108.9-41.2-109.9-41.2z M-111.6-33.4h-4.2v-4.2h4.2V-33.4z
	 M-109.9-23.3h-7.8c-1,0-1.8,0.8-1.8,1.8v7.8c0,1,0.8,1.8,1.8,1.8h7.8c1,0,1.8-0.8,1.8-1.8v-7.8C-108.1-22.5-108.9-23.3-109.9-23.3z
	 M-111.6-15.5h-4.2v-4.2h4.2V-15.5z M-109.9-5.4h-7.8c-1,0-1.8,0.8-1.8,1.8v7.8c0,1,0.8,1.8,1.8,1.8h7.8c1,0,1.8-0.8,1.8-1.8v-7.8
	C-108.1-4.6-108.9-5.4-109.9-5.4z M-111.6,2.4h-4.2v-4.2h4.2V2.4z M-92.4-47.8c1,0,1.8-0.8,1.8-1.8v-7.8c0-1-0.8-1.8-1.8-1.8h-7.8
	c-1,0-1.8,0.8-1.8,1.8v7.8c0,1,0.8,1.8,1.8,1.8H-92.4z M-98.4-55.6h4.2v4.2h-4.2V-55.6z M-86.3-20.3c-1,0-1.8,0.8-1.8,1.8v7.1
	c0,1,0.8,1.8,1.8,1.8h18.8c1,0,1.8-0.8,1.8-1.8v-7.2c0-1-0.8-1.8-1.8-1.8h-18.8L-86.3-20.3z M-69.2-13.2h-15.4v-3.6h15.3L-69.2-13.2
	L-69.2-13.2z"/>
<g>
	<g>
		<g>
			<path class="st1" d="M50.6,104.6l-4.3,4.4c-1.9,1.9-4.9,2-6.8,0.1L22,92c-1.9-1.9-2-4.9-0.1-6.8l4.3-4.4c1.9-1.9,4.9-2,6.8-0.1
				l1,1l1.1,1l12.4,12l3.1,3.1C52.5,99.6,52.5,102.7,50.6,104.6z"/>
			<path class="st1" d="M107.5,70.1L81.2,94.3l-33.8,0.5L35,82.7l-1.1-1c0,0,7.3-11.3,19.1-11.2c3.4,0,5.1,1,9.2,3.4
				c0,0,0.3,0,0.8-0.1l0.2,0c2.2-0.1,7.6-0.4,11.9,0.3c0.1,0,0.2,0,0.3,0.1c2.9,0.5,5.3,1.5,5.6,3.3c0,0,2.6-2.9,6.3-6
				C94.1,65.6,103.6,60.9,107.5,70.1z"/>
			<polygon class="st1" points="47.4,94.7 47.2,94.7 35,82.7 			"/>
			<path class="st1" d="M58.1,83.1l22.4-0.3c0.1-1.4,0.3-2.8,0.4-4.2"/>
		</g>
	</g>
	<path class="st2" d="M86.1,19.5c-3.9-3.9-12.6-1.9-22.1,4.3c-9.5-6.2-18.2-8.2-22.1-4.3c-3.8,3.8-2,12.1,3.7,21.2
		c2.7,4.3,6.3,8.8,10.6,13.1c2.6,2.6,5.2,4.9,7.8,6.9c2.6-2,5.3-4.3,7.8-6.9c4.3-4.3,7.9-8.8,10.6-13.1
		C88.1,31.6,89.9,23.3,86.1,19.5z"/>
</g>
</svg>
