<svg version="1.1" id="Layer_1" xmlns="http://www.w3.org/2000/svg" x="0" y="0" viewBox="0 0 128 128" xml:space="preserve"><style type="text/css">.st0{fill:#004898}</style><path class="st0" d="M112.1 67.1h-2.9c-2.5-7-7.3-13-13.7-16.8V39.1c0-1-.8-1.8-1.8-1.8-2.9 0-5.8.7-8.3 2.2 3-11.8-4.1-23.9-16-26.9s-23.9 4.1-26.9 16c-.5 1.8-.7 3.6-.7 5.5 0 4.7 1.5 9.4 4.4 13.2-11 3.4-19.3 12.5-21.6 23.9l-.4-.4c.1-2.2-.6-4.5-1.9-6.3-2.2-3.1-5.7-4.9-9.5-4.8-1 .1-1.7 1-1.6 1.9.1.9.9 1.6 1.8 1.6 2.6 0 5 1.3 6.4 3.4.5.7.9 1.5 1.1 2.3-.7-.1-1.4-.1-2 0-3.3.5-4.4 2.7-4.3 4.4.1 2.1 1.8 3.9 3.9 4h.3c1.9-.1 3.6-1.1 4.5-2.7.4.5.7 1 1 1.5v1.4c0 10.2 4.9 19.8 13.2 25.7 3.8 2.8 6 7.2 6 11.9 0 1 .8 1.8 1.8 1.8h16c1 0 1.8-.8 1.8-1.8v-6h9.5v6c0 1 .8 1.8 1.8 1.8h16c1 0 1.8-.8 1.8-1.8.1-4.8 2.4-9.3 6.3-12.2 5.2-3.8 9.1-9.1 11.2-15.2h2.9c2.6 0 4.7-2.1 4.7-4.7V71.8c-.2-2.6-2.2-4.7-4.8-4.7zm-91.9 5.4c-.3.7-1 1.3-1.8 1.3-.3-.1-.6-.3-.6-.7 0-.5 1.1-.7 1.3-.8h.4c.3 0 .5 0 .7.2.1-.1.1-.1 0 0zM64 15.4c10.3 0 18.6 8.4 18.6 18.7 0 3.7-1.1 7.3-3.1 10.3-.5.6-.9 1.2-1.4 1.8-1.9 2.2-4.2 3.9-6.8 5-2.2-.4-4.4-.6-6.6-.7.6-.3 1-.9 1-1.6v-2.3c3.9-1 6.2-4.9 5.3-8.7-.6-2.6-2.7-4.6-5.3-5.3v-7.2c1.2.6 2 1.9 2 3.3 0 1 .8 1.8 1.8 1.8s1.8-.8 1.8-1.8c0-3.3-2.3-6.2-5.5-7v-2.3c0-1-.8-1.8-1.8-1.8s-1.8.8-1.8 1.8v2.3c-3.9 1-6.2 4.9-5.2 8.8.6 2.6 2.7 4.6 5.2 5.2v7.2c-1.2-.6-2-1.9-2-3.3 0-1-.8-1.8-1.8-1.8s-1.8.8-1.8 1.8c0 3.3 2.3 6.2 5.5 7v2.3c0 .7.4 1.3 1 1.6-2.3 0-4.5.2-6.8.6-9.4-4.2-13.6-15.2-9.5-24.6C50 19.7 56.6 15.4 64 15.4zm3.7 24.1c0 1.4-.8 2.6-2 3.3v-6.5c1.3.6 2 1.8 2 3.2zm-5.5-7.7c-1.8-1-2.5-3.2-1.5-5 .3-.6.9-1.2 1.5-1.5v6.5zm51 51.2c0 .6-.5 1.2-1.2 1.2h-4.2c-.8 0-1.5.5-1.7 1.2-1.8 5.8-5.4 11-10.3 14.6-4.3 3.1-7.1 7.9-7.6 13.2H75.7v-6c0-1-.8-1.8-1.8-1.8H61c-1 0-1.7.8-1.8 1.8v6H46.6c-.5-5.2-3.1-9.9-7.4-13-12.6-9-15.5-26.6-6.5-39.2 3.9-5.4 9.6-9.3 16.1-10.9.8.8 1.8 1.5 2.7 2.2-2 .7-3.8 1.6-5.5 2.9-.8.6-.9 1.7-.3 2.5s1.7.9 2.5.3c3.1-2.5 8.9-4 15.3-4s12.2 1.5 15.3 4c.8.6 1.9.5 2.5-.3.6-.8.5-1.9-.3-2.5-1.5-1.1-3.1-2-4.9-2.7 1.5-1 3-2.2 4.2-3.6.2-.1.4-.3.5-.5 0 0 0-.1.1-.2.5-.5.9-1.1 1.3-1.7 2.5-3 6-5 9.8-5.7v10.3c0 .6.3 1.2.9 1.5 6.4 3.6 11.2 9.5 13.3 16.5.2.7.9 1.3 1.7 1.2h4.2c.6 0 1.2.5 1.2 1.2V83z"/><path class="st0" d="M95.4 66.2c-1 0-1.7.8-1.8 1.7 0 1.3-1 2.3-2.3 2.3s-2.3-1-2.3-2.3c0-1-.8-1.8-1.8-1.8s-1.8.8-1.8 1.8c0 3.2 2.6 5.8 5.8 5.8 3.2 0 5.8-2.6 5.8-5.8.1-1-.7-1.7-1.6-1.7z"/></svg>