<svg version="1.1" id="Layer_1" xmlns="http://www.w3.org/2000/svg" x="0" y="0" viewBox="0 0 128 128" xml:space="preserve"><style type="text/css">.st0{fill:#004898}</style><path class="st0" d="M41.6 84.4h-8.4l7.5-6.3c.4-.3.6-.8.6-1.3V54.3c0-4.8-3.5-8.8-8-9.6v-3.5l6.9-12.4c1.4-2.5 2.1-5.3 2.1-8.2v-1.7c0-1.3-.8-2.5-2.1-3.1-1.2-.5-2.7-.2-3.6.8L20 33.7c-3.9 4-6.4 9.3-7 14.9v.1L11.3 86v24.6c0 1 .8 1.8 1.8 1.8s1.8-.8 1.8-1.8V97.9H40v12.9c0 1 .8 1.8 1.8 1.8s1.8-.8 1.8-1.8V86.1c-.3-1-1.1-1.7-2-1.7zM22.5 36.1l16.4-16.8v1.2c0 2.3-.6 4.5-1.7 6.5L30 39.8c-.1.3-.2.6-.2.9v5.4l-4.7 19c-.2.9.3 1.9 1.3 2.1.1 0 .3.1.4.1.8 0 1.5-.5 1.7-1.3l4.4-17.7c2.8.6 5 3.1 5 6.1v21.5l-10.1 8.5h-13l1.6-35.5c.6-4.8 2.7-9.3 6.1-12.8zm-7.7 58.3v-6.5h25.1v6.5H14.8zm101.9-8.3s0-.1 0 0L115 48.7v-.1c-.6-5.6-3.1-10.9-7-14.9L91.3 16.5c-.9-1-2.4-1.3-3.6-.8s-2.1 1.7-2.1 3.1v1.7c0 2.9.7 5.7 2.1 8.2l6.9 12.4v3.5c-4.6.8-8 4.8-8 9.6v22.4c0 .5.2 1 .6 1.3l7.5 6.3h-8.4c-1 0-1.8.8-1.8 1.8v24.6c0 1 .8 1.8 1.8 1.8s1.8-.8 1.8-1.8V97.9h25.1v12.9c0 1 .8 1.8 1.8 1.8s1.8-.8 1.8-1.8l-.1-24.7c.1 0 0 0 0 0zM90.2 75.9V54.3c0-3 2.1-5.5 5-6.1l4.4 17.7c.2.8.9 1.3 1.7 1.3.1 0 .3 0 .4-.1.9-.2 1.5-1.2 1.3-2.1l-4.7-19v-5.4c0-.3-.1-.6-.2-.9L90.8 27c-1.1-2-1.7-4.2-1.7-6.5v-1.2l16.4 16.8c3.4 3.5 5.5 8 6 12.8l1.6 35.5h-12.9l-10-8.5zm-2 18.5v-6.5h25.1v6.5H88.2z"/><path class="st0" d="M64 19.1c-11.9 0-21.6 9.7-21.6 21.6 0 11.9 9.7 21.6 21.6 21.6s21.6-9.7 21.6-21.6c0-11.9-9.7-21.6-21.6-21.6zm0 39.7c-10 0-18.1-8.1-18.1-18.1S54 22.6 64 22.6s18.1 8.1 18.1 18.1S74 58.8 64 58.8z"/><path class="st0" d="M67.5 35.5c0 1 .8 1.8 1.8 1.8s1.8-.8 1.8-1.8c0-3.2-2.2-6-5.2-6.8v-2.2c0-1-.8-1.8-1.8-1.8s-1.8.8-1.8 1.8v2.2c-3 .8-5.2 3.5-5.2 6.7s2.2 6 5.2 6.7v6.7c-1-.6-1.7-1.7-1.7-3 0-1-.8-1.8-1.8-1.8S57 45 57 45.9c0 3.2 2.2 6 5.2 6.7v2.2c0 1 .8 1.8 1.8 1.8s1.8-.8 1.8-1.8v-2.2c3-.8 5.2-3.5 5.2-6.8s-2.2-6-5.2-6.8v-6.7c1 .8 1.7 1.9 1.7 3.2zm-7 0c0-1.3.7-2.4 1.7-3v6c-1-.7-1.7-1.8-1.7-3zm7 10.4c0 1.3-.7 2.4-1.7 3v-6c1 .6 1.7 1.7 1.7 3z"/></svg>