<svg version="1.1" id="Layer_1" xmlns="http://www.w3.org/2000/svg" x="0" y="0" viewBox="0 0 128 128" xml:space="preserve"><style type="text/css">.st1{fill:none;stroke:#fdfeff;stroke-width:4;stroke-linecap:square;stroke-miterlimit:10}</style><path fill="#004898" d="M-50 40.3h25.5v18.5H-50z"/><g id="_x31_"><path class="st1" d="M63.7 101C43.4 101 27 84.5 27 64.2c0-20.3 16.5-36.8 36.8-36.8 20.3 0 36.8 16.5 36.8 36.8M63.7 27.4v5.8m0 62.1v5.7m-26-62.8l4.1 4.1M27 64.2h5.7m62.1 0h5.7m-62.8 26l4.1-4m43.9-43.9l4-4.1M79.6 48.3L67.2 60.8m-6.7-.2l-6.4-6.2"/><path class="st1" d="M68.6 64.2c0 2.7-2.2 4.9-4.9 4.9s-4.9-2.2-4.9-4.9 2.2-4.9 4.9-4.9 4.9 2.2 4.9 4.9zm3.2 13.1v-3.1h11.3v4.2L72.3 91.8V97h10.8m5.3-22.8v11.4h9.2m1-11.4V97"/></g></svg>