<svg version="1.1" id="Layer_1" xmlns="http://www.w3.org/2000/svg" x="0" y="0" viewBox="0 0 128 128" xml:space="preserve"><style type="text/css">.st0{fill:#004898}</style><path class="st0" d="M58.8 102.7c-.7-.6-1.8-.6-2.5.1-.6.7-.6 1.8.1 2.5l2.7 2.5C37.1 105.3 20 86.6 20 64c0-19.8 13.3-37.3 32.4-42.5.9-.3 1.5-1.2 1.2-2.1s-1.2-1.5-2.1-1.2c-20.6 5.6-35 24.5-35 45.9 0 24.4 18.5 44.6 42.2 47.2l-3.5 2.3c-.8.5-1 1.6-.5 2.4.3.5.9.8 1.5.8.3 0 .7-.1 1-.3l7.9-5.2c.5-.3.7-.8.8-1.3s-.2-1.1-.6-1.4l-6.5-5.9zm10.6-85.9l3.5-2.3c.8-.5 1-1.6.5-2.4-.5-.8-1.6-1-2.4-.5l-8 5.2c-.5.3-.7.8-.8 1.3s.2 1.1.6 1.4l6.4 5.8c.3.3.8.5 1.2.5.5 0 1-.2 1.3-.6.6-.7.6-1.8-.1-2.5l-2.7-2.5C90.9 22.7 108 41.4 108 64c0 19.6-13.1 37-31.9 42.3-.9.3-1.5 1.2-1.2 2.2.2.8.9 1.3 1.7 1.3.2 0 .3 0 .5-.1 20.3-5.8 34.4-24.6 34.4-45.7 0-24.4-18.4-44.6-42.1-47.2z"/><path class="st0" d="M26.5 64c0 20.7 16.8 37.5 37.5 37.5s37.5-16.8 37.5-37.5S84.7 26.5 64 26.5 26.5 43.3 26.5 64zM64 30c18.7 0 34 15.3 34 34S82.7 98 64 98 30 82.7 30 64s15.3-34 34-34z"/><path class="st0" d="M64 93.5c16.3 0 29.5-13.2 29.5-29.5S80.3 34.5 64 34.5 34.5 47.7 34.5 64 47.7 93.5 64 93.5zM64 38c14.3 0 26 11.7 26 26S78.3 90 64 90 38 78.3 38 64s11.7-26 26-26z"/><path class="st0" d="M57.9 71.9c0-1-.8-1.8-1.8-1.8s-1.8.8-1.8 1.8c0 4.7 3.4 8.6 7.9 9.5v4c0 1 .8 1.8 1.8 1.8s1.8-.8 1.8-1.8v-4c4.5-.8 7.9-4.7 7.9-9.5 0-4.7-3.4-8.6-7.9-9.5V50.2c2.5.7 4.4 3.1 4.4 5.9 0 1 .8 1.8 1.8 1.8s1.8-.8 1.8-1.8c0-4.7-3.4-8.6-7.9-9.5v-4c0-1-.8-1.8-1.8-1.8s-1.8.8-1.8 1.8v4c-4.5.8-7.9 4.8-7.9 9.5s3.4 8.6 7.9 9.5v12.2c-2.6-.8-4.4-3.2-4.4-5.9zm12.3 0c0 2.8-1.9 5.1-4.4 5.9V66c2.5.7 4.4 3.1 4.4 5.9zM57.9 56.1c0-2.8 1.8-5.1 4.4-5.9V62c-2.6-.8-4.4-3.1-4.4-5.9z"/></svg>