<?xml version="1.0" encoding="utf-8"?>
<!-- Generator: Adobe Illustrator 23.0.0, SVG Export Plug-In . SVG Version: 6.00 Build 0)  -->
<svg version="1.1" id="Layer_1" xmlns="http://www.w3.org/2000/svg" xmlns:xlink="http://www.w3.org/1999/xlink" x="0px" y="0px"
	 viewBox="0 0 128 128" style="enable-background:new 0 0 128 128;" xml:space="preserve">
<style type="text/css">
	.st0{fill:none;stroke:#004898;stroke-width:3.8;stroke-linecap:square;stroke-miterlimit:10;}
</style>
<g id="_x38_">
	<line class="st0" x1="10.8" y1="49.9" x2="21.7" y2="61.6"/>
	<path class="st0" d="M99.2,34.2l-7.4,6.6l-17.7-10c-1.9-1.1-4.2-1.1-6.1-0.1L42.4,44.8c-0.6,0.3-0.8,1.1-0.5,1.7l2,3.2
		c0.6,1,1.8,1.5,2.9,1.3l19.4-4.1c2.3-0.5,4.8,0.4,6.3,2.2l20,24.6c1.3,1.6,1.1,4-0.5,5.4l-3,2.6c-1.7,1.4-4.2,1.2-5.5-0.5
		L70.1,64.6"/>
	<line class="st0" x1="42.1" y1="44.9" x2="32.6" y2="34.3"/>
	<path class="st0" d="M117.2,54l-7.6,6.8c0,0-1.2,9.2-8.2,12.4"/>
	<path class="st0" d="M62.1,72.7l11.8,14.5c1.4,1.7,3.8,1.9,5.5,0.5l2.7-2.2c1.6-1.3,1.9-3.8,0.6-5.4L75,70.6"/>
	<path class="st0" d="M55.6,81.8l8.6,10.5c1.4,1.7,3.8,1.9,5.5,0.5l2.4-2c1.6-1.4,1.9-3.8,0.5-5.4l-9.3-11.4"/>
	<path class="st0" d="M53.6,96.2l0.3,0.3c1.4,1.6,3.8,1.8,5.4,0.5l2.2-1.9c1.6-1.4,1.9-3.8,0.5-5.4l-6.5-7.9"/>
	<path class="st0" d="M23.8,72.7L20,68.3c-0.7-0.8-0.6-2.1,0.2-2.8l4.4-3.8c0.8-0.7,2.1-0.6,2.8,0.2l3.8,4.4
		c0.7,0.8,0.6,2.1-0.2,2.8l-4.4,3.8C25.8,73.6,24.5,73.5,23.8,72.7z"/>
	<path class="st0" d="M30.1,79.9l-3.7-4.3c-0.7-0.8-0.6-2.1,0.2-2.8l4.3-3.7c0.8-0.7,2.1-0.6,2.8,0.2l3.7,4.3
		c0.7,0.8,0.6,2.1-0.2,2.8l-4.3,3.7C32.1,80.8,30.8,80.7,30.1,79.9z"/>
	<path class="st0" d="M36.5,87.2l-3.7-4.3c-0.7-0.8-0.6-2.1,0.2-2.8l4.3-3.7c0.8-0.7,2.1-0.6,2.8,0.2l3.7,4.3
		c0.7,0.8,0.6,2.1-0.2,2.8l-4.3,3.7C38.5,88.2,37.2,88.1,36.5,87.2z"/>
	<path class="st0" d="M43,92.6l-4.1-4.8l4.8-4.1c0.8-0.7,2.1-0.6,2.8,0.2l2.8,3.3c0.7,0.8,0.6,2.1-0.2,2.8l-3.3,2.8
		C45,93.5,43.7,93.4,43,92.6z"/>
</g>
</svg>
