<svg version="1.1" id="Layer_1" xmlns="http://www.w3.org/2000/svg" x="0" y="0" viewBox="0 0 128 128" xml:space="preserve"><style type="text/css">.st0{fill:#004898}</style><path class="st0" d="M64 75.4c12.7 0 23.1-10.4 23.1-23.1S76.7 29.2 64 29.2 40.9 39.6 40.9 52.3 51.3 75.4 64 75.4zm0-42.7c10.8 0 19.6 8.8 19.6 19.6S74.8 71.9 64 71.9s-19.6-8.8-19.6-19.6S53.2 32.7 64 32.7z"/><path class="st0" d="M60 58.1c0-1-.8-1.8-1.8-1.8s-1.8.8-1.8 1.8c0 3.5 2.4 6.5 5.7 7.3v2.5c0 1 .8 1.8 1.8 1.8s1.8-.8 1.8-1.8v-2.5c3.3-.8 5.8-3.8 5.8-7.3s-2.5-6.5-5.8-7.3V43c1.3.6 2.3 2 2.3 3.6 0 1 .8 1.8 1.8 1.8s1.8-.8 1.8-1.8c0-3.5-2.5-6.5-5.8-7.3v-2.5c0-1-.8-1.8-1.8-1.8s-1.8.8-1.8 1.8v2.5c-3.3.8-5.7 3.8-5.7 7.3s2.4 6.5 5.7 7.3v7.8c-1.3-.7-2.2-2.1-2.2-3.6zm8 0c0 1.6-.9 2.9-2.3 3.6v-7.2c1.4.6 2.3 2 2.3 3.6zm-8-11.5c0-1.6.9-2.9 2.2-3.6v7.1c-1.3-.6-2.2-2-2.2-3.5z"/><path class="st0" d="M92.6 11.2H35.4c-3.2 0-5.8 2.6-5.8 5.8v93.8c0 3.2 2.6 5.8 5.8 5.8h57.2c3.2 0 5.8-2.6 5.8-5.8V17.1c0-3.2-2.6-5.9-5.8-5.9zM33.1 22.4h61.8v79.5H33.1V22.4zm2.3-7.6h57.2c1.3 0 2.3 1 2.3 2.3v1.8H33.1v-1.8c0-1.3 1-2.3 2.3-2.3zm57.2 98.4H35.4c-1.3 0-2.3-1-2.3-2.3v-5.5h61.8v5.5c0 1.3-1 2.3-2.3 2.3z"/><path class="st0" d="M64 106.9c-1.3 0-2.3 1-2.3 2.3s1 2.3 2.3 2.3 2.3-1 2.3-2.3-1-2.3-2.3-2.3zM42.6 86H64c1 0 1.8-.8 1.8-1.8s-.8-1.7-1.8-1.7H42.6c-1 0-1.8.8-1.8 1.8s.9 1.7 1.8 1.7zm42.8 4.1H42.6c-1 0-1.8.8-1.8 1.8s.8 1.8 1.8 1.8h42.7c1 0 1.8-.8 1.8-1.8s-.8-1.8-1.7-1.8z"/></svg>