<svg version="1.1" id="Layer_1" xmlns="http://www.w3.org/2000/svg" x="0" y="0" viewBox="0 0 128 128" xml:space="preserve"><style type="text/css">.st0{fill:#004898}</style><path class="st0" d="M116.5 74.2c-.5-1.2-1.7-2.1-3.1-2.1h-1.7c-2.9 0-5.7.7-8.2 2.1l-12.4 6.9h-3.5c-.8-4.6-4.8-8-9.6-8H55.6c-.5 0-1 .2-1.3.6l-6.8 8c-.3-.4-.8-.6-1.3-.6H13c-1 0-1.8.8-1.8 1.8s.8 1.8 1.8 1.8h21.4v25.1H13c-1 0-1.8.8-1.8 1.8s.8 1.8 1.8 1.8h33.1c1 0 1.8-.8 1.8-1.8v-8.4l35.7-1.6h.1c5.6-.6 10.9-3.1 14.9-7l17.2-16.7c.9-1 1.2-2.4.7-3.7zm-72.1 35.6h-6.5V84.7h6.5v25.1zM96.2 92c-3.5 3.4-8 5.5-12.8 6l-35.5 1.6V86.8l8.5-10.1h21.5c3 0 5.5 2.1 6.1 5L66.3 86c-.9.2-1.5 1.2-1.3 2.1.2.8.9 1.3 1.7 1.3.1 0 .3 0 .4-.1l19-4.7h5.4c.3 0 .6-.1.9-.2l12.8-7.2c2-1.1 4.2-1.7 6.5-1.7h1.2L96.2 92zM82.3 66.6c14.3 0 25.9-11.6 25.9-25.9 0-14.3-11.6-25.9-25.9-25.9S56.4 26.3 56.4 40.6s11.6 26 25.9 26zm0-48.4c12.4 0 22.4 10.1 22.4 22.4s-10 22.5-22.4 22.5S59.9 53 59.9 40.6s10-22.4 22.4-22.4z"/><path class="st0" d="M77.7 47c0-1-.8-1.8-1.8-1.8s-1.7.8-1.7 1.8c0 3.9 2.7 7.1 6.3 7.9v2.9c0 1 .8 1.8 1.8 1.8s1.8-.8 1.8-1.8v-2.9c3.6-.8 6.4-4 6.4-7.9s-2.7-7.1-6.4-7.9V30c1.7.7 2.9 2.3 2.9 4.3 0 1 .8 1.8 1.8 1.8s1.8-.8 1.8-1.8c0-3.9-2.7-7.1-6.4-7.9v-2.9c0-1-.8-1.8-1.8-1.8s-1.8.8-1.8 1.8v2.9c-3.6.8-6.3 4-6.3 7.9s2.7 7.1 6.3 7.9v9.1c-1.7-.8-2.9-2.4-2.9-4.3zm9.2 0c0 1.9-1.2 3.6-2.9 4.3v-8.5c1.7.6 2.9 2.2 2.9 4.2zm-9.2-12.7c0-1.9 1.2-3.6 2.8-4.3v8.5c-1.6-.7-2.8-2.3-2.8-4.2z"/></svg>