<svg xmlns="http://www.w3.org/2000/svg" viewBox="0 0 240 48"><g id="svg-logo-ppcbank" fill="#fff" transform="translate(-146 -18)"><path id="Path_7791" d="M238.58 42.489l8.5-9.437h-5.82l-6.36 7.055-.9 1.143.037-16.534h-4.67v30h4.67v-7.8l1.25-1.147 6.33 8.942h5.75z" data-name="Path 7791" transform="translate(138.636 4.284)"/><path id="Path_7790" d="M222.855 34.559c-1.306-1.344-3.288-2.027-5.884-2.027a8.782 8.782 0 00-3.943.889 7.175 7.175 0 00-1.834 1.3l-.318-1.824h-4.053v21.64h4.8V43.344c0-2.351.394-4.034 1.177-5.009a4.465 4.465 0 013.709-1.4 3.442 3.442 0 012.7.924 4.556 4.556 0 01.846 3.065v13.608h4.767V40.691c.001-2.729-.663-4.791-1.967-6.132z" data-name="Path 7790" transform="translate(138.177 4.468)"/><path id="Path_7789" d="M200.875 34.357c-1.34-1.189-3.356-1.793-5.993-1.793a15.52 15.52 0 00-3.766.475 15.968 15.968 0 00-3.508 1.306l-.669.347 1.626 3.9.805-.36a23.624 23.624 0 012.576-1.006 8.845 8.845 0 012.749-.421 3.4 3.4 0 012.555.795 4.011 4.011 0 01.776 2.756v.372l-2.6.09c-6.959.215-10.488 2.6-10.488 7.1a6.3 6.3 0 001.962 4.902 7.559 7.559 0 005.234 1.744 10.354 10.354 0 004.113-.727 7.807 7.807 0 002.315-1.635l.463 2h3.916V39.979c-.004-2.521-.697-4.413-2.066-5.622zm-2.888 10.256v.925a4.606 4.606 0 01-1.319 3.546 5.425 5.425 0 01-3.784 1.238 3.239 3.239 0 01-2.158-.622 2.124 2.124 0 01-.678-1.749 2.425 2.425 0 011.189-2.291 10.358 10.358 0 014.653-.954z" data-name="Path 7789" transform="translate(137.063 4.436)"/><path id="Path_7792" d="M172.736 36.662a7.012 7.012 0 004.775-6.34c0-6.071-5.239-8.62-11.413-8.62h-10.172v32h11.919c7.065 0 13.081-2.353 13.081-9 0-4.294-3.685-7.232-8.19-8.04zm-10.68-11.408h4.077a5.106 5.106 0 015.36 5.143 5.2 5.2 0 01-5.36 5.259h-4.077zm5.867 24.9h-5.867V39.209h4.077c4.158 0 8.232 1.391 8.232 5.491 0 3.667-2.914 5.449-6.442 5.449z" data-name="Path 7792" transform="translate(138.074 5.299)"/><path id="Path_7788" d="M129.739 37.268c0-7.416 4.478-11.931 10.825-11.931a14.735 14.735 0 018.683 2.41v-4.292c-1.531-1.093-4.7-2.186-9.14-2.186-9.869 0-16.634 6.324-16.634 16s6.765 16 16.634 16c4.436 0 7.531-1.018 9.14-2.185v-4.29a14.733 14.733 0 01-8.683 2.408c-6.347 0-10.825-4.517-10.825-11.934M103.014 25.3h4.4c3.824 0 6.305 2.668 6.305 7.186s-2.482 7.191-6.305 7.191h-4.4zm0 17.99h4.548c6.542 0 12.2-3.8 12.2-10.8s-5.657-10.8-12.2-10.8H96.9v31.161h6.116zM75.364 25.3h4.394c3.828 0 6.313 2.668 6.313 7.186s-2.485 7.191-6.313 7.191h-4.394zm0 17.99h4.551c6.539 0 12.2-3.8 12.2-10.8s-5.661-10.8-12.2-10.8H69.247v31.161h6.118z" data-name="Path 7788" transform="translate(138.753 5.731)"/><path id="Path_7787" d="M6.856 13.25v48h48v-48zm48 47.947L39.489 45.913 24.676 60.5 16.169 52l23.32-23.381 15.365 14.633z" data-name="Path 7787" transform="translate(139.144 4.75)"/></g></svg>