<?xml version="1.0" encoding="utf-8"?>
<!-- Generator: Adobe Illustrator 22.0.0, SVG Export Plug-In . SVG Version: 6.00 Build 0)  -->
<svg version="1.1" id="Layer_1" xmlns="http://www.w3.org/2000/svg" xmlns:xlink="http://www.w3.org/1999/xlink" x="0px" y="0px"
	 viewBox="0 0 128 128" style="enable-background:new 0 0 128 128;" xml:space="preserve">
<style type="text/css">
	.st0{fill:none;stroke:#004898;stroke-width:3;stroke-miterlimit:10;}
</style>
<title>PIGGY BANK</title>
<g>
	<path class="st0" d="M63.2,61.4h9.4v11.2l13.8-11.2h6.9c5.7,0,10.4-4.6,10.4-10.4V23.5H51.9v27.6c0,0.2,0,0.5,0,0.7"/>
	<path class="st0" d="M69.2,104.5v-5.8c0-2.7-1.6-5.1-4-6.3l-11.2-5.2l-7.3,7l-7.3-7l-11.2,5.2c-2.4,1.1-4,3.6-4,6.3v5.8"/>
	<path class="st0" d="M46.7,82.1L46.7,82.1c-5.7,0-10.5-4.4-11.1-10.1l-0.2-1.9C34.9,63.6,40,58,46.6,58h0.4
		c6.5,0,11.7,5.6,11.1,12.1L57.8,72C57.3,77.7,52.5,82.1,46.7,82.1z"/>
	<path class="st0" d="M84.7,33.8"/>
</g>
</svg>
