<svg version="1.1" id="Layer_1" xmlns="http://www.w3.org/2000/svg" x="0" y="0" viewBox="0 0 128 128" xml:space="preserve"><style type="text/css">.st1{fill:none;stroke:#004898;stroke-width:4;stroke-linecap:square;stroke-miterlimit:10}</style><path fill="#004898" d="M-50 40.3h25.5v18.5H-50z"/><g id="_x36_"><path class="st1" d="M39.4 68.4l4.1 4.1m0-4.1l-4.1 4.1M54 68.4l4.1 4.1m0-4.1L54 72.5m14.6-4.1l4.1 4.1m0-4.1l-4.1 4.1M94 38.2h5.3v60.4H28.1V38.2h9"/><path class="st1" d="M39.5 31.8h9.2v12.6h-9.2zm39.3 0H88v12.6h-9.2zM28.1 52.6h64.3m-53.6 8.7h5.3m9.3 0h5.3m9.3 0h5.3m9.3 0h5.3m-5.3 9.6h5.3m-49.1 9.6h5.3m9.3 0h5.3m9.3 0h5.3m9.3 0h5.3m-49.1 9.6h5.3m9.3 0h5.3m9.3 0h5.3m9.3 0h5.3M54.8 38.2h24"/></g></svg>