<?xml version="1.0" encoding="utf-8"?>
<!-- Generator: Adobe Illustrator 22.0.0, SVG Export Plug-In . SVG Version: 6.00 Build 0)  -->
<svg version="1.1" id="Layer_1" xmlns="http://www.w3.org/2000/svg" xmlns:xlink="http://www.w3.org/1999/xlink" x="0px" y="0px"
	 viewBox="0 0 128 128" style="enable-background:new 0 0 128 128;" xml:space="preserve">
<style type="text/css">
	.st0{fill:#004898;}
</style>
<title>PIGGY BANK</title>
<g>
	<path class="st0" d="M95.2,92.5V31.9c0-2.9-2.4-5.3-5.3-5.3H52.4v-0.9c0-3.4-2.8-6.2-6.2-6.2c-3.4,0-6.2,2.8-6.2,6.2v0.9h-1.8
		c-2.9,0-5.3,2.4-5.3,5.3v71.3c0,2.9,2.4,5.3,5.3,5.3h41c0.4,0,0.9-0.2,1.3-0.5l14.3-14.3C95,93.5,95.2,93,95.2,92.5z M43.5,25.7
		c0-3.5,5.3-3.5,5.3,0v0.9h-5.3V25.7z M36.4,103.2V31.9c0-1,0.8-1.8,1.8-1.8h10.7v4.5c0,3.5-5.3,3.5-5.3,0c0-2.4-3.6-2.4-3.6,0
		c0,3.4,2.8,6.2,6.2,6.2c3.4,0,6.2-2.8,6.2-6.2v-4.5h37.4c1,0,1.8,0.8,1.8,1.8v58.8h-8.9c-2.9,0-5.3,2.4-5.3,5.3v8.9H38.2
		C37.2,105,36.4,104.2,36.4,103.2z M80.9,102.5v-6.4c0-1,0.8-1.8,1.8-1.8h6.4C83.9,99.5,86.1,97.3,80.9,102.5z"/>
	<path class="st0" d="M54.2,48H72c2.4,0,2.4-3.6,0-3.6H54.2C51.8,44.4,51.8,48,54.2,48z"/>
	<path class="st0" d="M43.5,56.9h39.2c2.4,0,2.4-3.6,0-3.6H43.5C41.1,53.3,41.1,56.9,43.5,56.9z"/>
	<path class="st0" d="M43.5,65.8h39.2c2.4,0,2.4-3.6,0-3.6H43.5C41.1,62.2,41.1,65.8,43.5,65.8z"/>
	<path class="st0" d="M82.7,74.7c2.4,0,2.4-3.6,0-3.6H43.5c-2.4,0-2.4,3.6,0,3.6H82.7z"/>
	<path class="st0" d="M54,88.3c0,1.2,1.8,1.2,1.8,0c0-1.5-1.1-2.8-2.5-3.2v-0.5c0-1.2-1.8-1.2-1.8,0V85c-3.3,0.9-3.3,5.6,0,6.5v3
		c-0.4-0.3-0.7-0.8-0.7-1.3c0-1.2-1.8-1.2-1.8,0c0,1.5,1.1,2.8,2.5,3.2v0.5c0,1.2,1.8,1.2,1.8,0v-0.5c3.3-0.9,3.3-5.6,0-6.5v-3
		C53.7,87.2,54,87.7,54,88.3z M51.5,86.9v2.6C50.6,88.9,50.6,87.6,51.5,86.9z M53.3,94.5v-2.6C54.2,92.5,54.2,93.9,53.3,94.5z"/>
	<path class="st0" d="M52.4,80.9c-5.4,0-9.8,4.4-9.8,9.8c0,5.4,4.4,9.8,9.8,9.8c5.4,0,9.8-4.4,9.8-9.8
		C62.2,85.3,57.8,80.9,52.4,80.9z M52.4,98.7c-4.4,0-8-3.6-8-8c0-4.4,3.6-8,8-8c4.4,0,8,3.6,8,8C60.4,95.1,56.8,98.7,52.4,98.7z"/>
</g>
</svg>
